<?xml version="1.0" encoding="UTF-8"?>
<!DOCTYPE svg PUBLIC "-//W3C//DTD SVG 1.1//EN" "http://www.w3.org/Graphics/SVG/1.1/DTD/svg11.dtd">
<svg xmlns="http://www.w3.org/2000/svg" version="1.1" width="50px" height="47px" style="shape-rendering:geometricPrecision; text-rendering:geometricPrecision; image-rendering:optimizeQuality; fill-rule:evenodd; clip-rule:evenodd" xmlns:xlink="http://www.w3.org/1999/xlink">
<g><path style="opacity:1" fill="#fbfcfd" d="M -0.5,-0.5 C 16.1667,-0.5 32.8333,-0.5 49.5,-0.5C 49.5,15.1667 49.5,30.8333 49.5,46.5C 39.8333,46.5 30.1667,46.5 20.5,46.5C 24.6547,43.5328 27.3214,39.5328 28.5,34.5C 28.2627,33.209 28.596,32.209 29.5,31.5C 28.8133,37.4754 31.1466,41.8087 36.5,44.5C 38.695,42.9405 39.695,40.7739 39.5,38C 39.1993,34.903 38.1993,32.0696 36.5,29.5C 37.8333,28.8333 39.1667,28.1667 40.5,27.5C 48.3088,24.2779 47.9754,21.1112 39.5,18C 36.854,17.5026 34.1873,17.3359 31.5,17.5C 31.795,15.5767 32.6283,13.9101 34,12.5C 35.3528,6.27273 33.1861,4.4394 27.5,7C 21.7367,10.8641 19.7367,16.0308 21.5,22.5C 19.8389,19.5546 18.6722,16.2213 18,12.5C 16.1482,8.92327 13.4815,7.92327 10,9.5C 9.24362,14.4695 10.077,19.1362 12.5,23.5C 10.8333,24.1667 9.16667,24.8333 7.5,25.5C 2.5072,25.997 1.5072,28.1637 4.5,32C 6.40679,33.122 8.40679,33.9553 10.5,34.5C 12.6074,35.4682 14.9407,35.8016 17.5,35.5C 16.1086,37.7915 15.1086,40.2915 14.5,43C 14.6483,44.2559 14.9816,45.4226 15.5,46.5C 10.1667,46.5 4.83333,46.5 -0.5,46.5C -0.5,30.8333 -0.5,15.1667 -0.5,-0.5 Z"/></g>
<g><path style="opacity:1" fill="#1b5c97" d="M 31.5,17.5 C 27.982,18.9763 24.6487,20.643 21.5,22.5C 19.7367,16.0308 21.7367,10.8641 27.5,7C 33.1861,4.4394 35.3528,6.27273 34,12.5C 32.6283,13.9101 31.795,15.5767 31.5,17.5 Z"/></g>
<g><path style="opacity:1" fill="#1b5c97" d="M 21.5,22.5 C 21.1649,26.5111 19.1649,27.5111 15.5,25.5C 14.7095,24.5987 13.7095,23.9321 12.5,23.5C 10.077,19.1362 9.24362,14.4695 10,9.5C 13.4815,7.92327 16.1482,8.92327 18,12.5C 18.6722,16.2213 19.8389,19.5546 21.5,22.5 Z"/></g>
<g><path style="opacity:1" fill="#175a96" d="M 31.5,17.5 C 34.1873,17.3359 36.854,17.5026 39.5,18C 47.9754,21.1112 48.3088,24.2779 40.5,27.5C 36.118,25.9947 31.618,24.6613 27,23.5C 28.1378,21.487 29.6378,19.487 31.5,17.5 Z"/></g>
<g><path style="opacity:1" fill="#dce6ef" d="M 31.5,17.5 C 29.6378,19.487 28.1378,21.487 27,23.5C 31.618,24.6613 36.118,25.9947 40.5,27.5C 39.1667,28.1667 37.8333,28.8333 36.5,29.5C 34.4204,28.0541 32.0871,27.0541 29.5,26.5C 27.0698,28.0374 27.0698,29.704 29.5,31.5C 28.596,32.209 28.2627,33.209 28.5,34.5C 27.5655,33.4324 27.2322,32.099 27.5,30.5C 24.2219,32.07 20.8886,33.7367 17.5,35.5C 14.9407,35.8016 12.6074,35.4682 10.5,34.5C 15.5376,35.5518 19.5376,34.0518 22.5,30C 21.3682,27.7899 19.8682,27.2899 18,28.5C 16.6974,28.0217 15.5307,27.355 14.5,26.5C 14.5,25.8333 14.8333,25.5 15.5,25.5C 19.1649,27.5111 21.1649,26.5111 21.5,22.5C 24.6487,20.643 27.982,18.9763 31.5,17.5 Z"/></g>
<g><path style="opacity:1" fill="#97b7d1" d="M 12.5,23.5 C 13.7095,23.9321 14.7095,24.5987 15.5,25.5C 14.8333,25.5 14.5,25.8333 14.5,26.5C 12.283,25.6314 9.94965,25.298 7.5,25.5C 9.16667,24.8333 10.8333,24.1667 12.5,23.5 Z"/></g>
<g><path style="opacity:1" fill="#145995" d="M 7.5,25.5 C 9.94965,25.298 12.283,25.6314 14.5,26.5C 15.5307,27.355 16.6974,28.0217 18,28.5C 19.8682,27.2899 21.3682,27.7899 22.5,30C 19.5376,34.0518 15.5376,35.5518 10.5,34.5C 8.40679,33.9553 6.40679,33.122 4.5,32C 1.5072,28.1637 2.5072,25.997 7.5,25.5 Z"/></g>
<g><path style="opacity:1" fill="#185b96" d="M 36.5,29.5 C 38.1993,32.0696 39.1993,34.903 39.5,38C 39.695,40.7739 38.695,42.9405 36.5,44.5C 31.1466,41.8087 28.8133,37.4754 29.5,31.5C 27.0698,29.704 27.0698,28.0374 29.5,26.5C 32.0871,27.0541 34.4204,28.0541 36.5,29.5 Z"/></g>
<g><path style="opacity:1" fill="#165a96" d="M 28.5,34.5 C 27.3214,39.5328 24.6547,43.5328 20.5,46.5C 18.8333,46.5 17.1667,46.5 15.5,46.5C 14.9816,45.4226 14.6483,44.2559 14.5,43C 15.1086,40.2915 16.1086,37.7915 17.5,35.5C 20.8886,33.7367 24.2219,32.07 27.5,30.5C 27.2322,32.099 27.5655,33.4324 28.5,34.5 Z"/></g>
</svg>
